<?xml version="1.0" encoding="UTF-8"?>
<svg version="1.1" xmlns="http://www.w3.org/2000/svg" width="500" height="500">
<path d="M0 0 C5.89572629 3.78164824 9.95573562 9.11643789 12.52734375 15.62109375 C12.52734375 16.61109375 12.52734375 17.60109375 12.52734375 18.62109375 C13.37941406 18.73710937 14.23148437 18.853125 15.109375 18.97265625 C18.67985119 19.65002659 21.82363594 20.69632769 25.21484375 21.99609375 C26.33246094 22.41632813 27.45007813 22.8365625 28.6015625 23.26953125 C33.11426059 25.35416882 33.11426059 25.35416882 34.52734375 27.62109375 C35.06138445 33.21446739 33.97117392 38.4364937 32.77734375 43.87109375 C32.62007813 44.67289063 32.4628125 45.4746875 32.30078125 46.30078125 C32.13320312 47.07164062 31.965625 47.8425 31.79296875 48.63671875 C31.64633789 49.33055664 31.49970703 50.02439453 31.34863281 50.73925781 C30.20696628 53.35518101 29.00340482 54.20764638 26.52734375 55.62109375 C23.49389648 56.34350586 23.49389648 56.34350586 19.9609375 56.8984375 C5.33121734 59.21660741 5.33121734 59.21660741 -5.95556641 67.78222656 C-10.31666188 75.38351552 -12.60443039 84.12348635 -14.47265625 92.62109375 C-13.24804688 93.0284375 -12.0234375 93.43578125 -10.76171875 93.85546875 C-8.00426507 94.77282125 -5.24965175 95.69711302 -2.49902344 96.63476562 C0.71342 97.72797928 3.93235964 98.80031519 7.15234375 99.87109375 C8.79203125 100.43570313 8.79203125 100.43570313 10.46484375 101.01171875 C20.4318855 104.29384388 26.54751842 102.83261962 36.08984375 99.18359375 C44.49069894 96.04757395 52.93851966 93.14579447 61.46484375 90.37109375 C76.43317175 85.4595641 91.22814112 80.0802294 106.02734375 74.68359375 C107.23036133 74.24493988 108.43337891 73.80628601 109.67285156 73.3543396 C120.84932793 69.27619441 132.02018515 65.18296822 143.1796875 61.05859375 C144.54557261 60.55460528 145.91145801 60.05061761 147.27734375 59.54663086 C149.60307891 58.68695267 151.92748957 57.82367467 154.25 56.95532227 C159.7467507 54.91969805 165.26924431 53.05835532 170.875 51.34765625 C182.58510776 47.76423725 194.06059349 43.4888094 205.57666016 39.33325195 C208.53825677 38.26586602 211.50148002 37.2030931 214.46484375 36.140625 C215.80409912 35.65466606 215.80409912 35.65466606 217.17041016 35.15888977 C237.17298567 27.9929538 256.2751249 28.29587492 275.77734375 37.0859375 C283.86246455 41.13803224 290.14509433 46.25930026 296.52734375 52.62109375 C297.3471875 53.4203125 298.16703125 54.21953125 299.01171875 55.04296875 C301.73745629 57.83642648 304.27518619 60.7543934 306.77734375 63.74609375 C307.25695557 64.31593994 307.73656738 64.88578613 308.23071289 65.47290039 C311.17270914 68.97685646 314.0779008 72.50907373 316.96484375 76.05859375 C323.80614208 84.45417632 330.82443867 92.70834724 338.15234375 100.68359375 C341.41360521 104.27273787 344.41623291 108.00562919 347.33984375 111.87109375 C351.06306296 116.77800387 354.88177551 121.58848891 358.83984375 126.30859375 C359.33137939 126.90897461 359.82291504 127.50935547 360.3293457 128.12792969 C365.24377998 133.91865864 369.78949567 134.86665474 377.109375 135.5859375 C377.84121506 135.66477676 378.57305511 135.74361603 379.32707214 135.82484436 C381.66399959 136.07625108 384.00173174 136.31847117 386.33984375 136.55859375 C395.36970411 137.48868757 404.39207909 138.46066065 413.3515625 139.9375 C415.24588013 140.24022827 415.24588013 140.24022827 417.1784668 140.54907227 C421.13209556 141.81468311 422.88310216 143.46931902 425.52734375 146.62109375 C427.28310476 150.13261577 427.05076967 153.78909903 426.52734375 157.62109375 C424.45980559 161.67959458 423.03411407 162.99143167 418.86328125 164.734375 C415.44213194 165.83372695 412.01364774 166.74951775 408.52734375 167.62109375 C407.05847932 167.99825253 405.58973319 168.37587232 404.12109375 168.75390625 C400.26304589 169.73762146 396.39769806 170.68704162 392.52734375 171.62109375 C393.26339844 171.77964844 393.99945313 171.93820312 394.7578125 172.1015625 C405.46766686 174.66230707 405.46766686 174.66230707 408.52734375 179.62109375 C409.56607537 184.84093835 409.41558553 188.24619076 406.48828125 192.77734375 C403.43427509 196.15883551 399.86452962 197.1885251 395.52734375 198.18359375 C394.75567871 198.37848389 393.98401367 198.57337402 393.18896484 198.77416992 C391.52536652 199.18998664 389.85903485 199.59498792 388.19042969 199.99023438 C385.39339476 200.65282497 382.60507015 201.34603886 379.81640625 202.04296875 C376.17326204 202.94100131 372.5300499 203.83814171 368.87890625 204.703125 C368.13463379 204.88077393 367.39036133 205.05842285 366.62353516 205.24145508 C364.52734375 205.62109375 364.52734375 205.62109375 360.52734375 205.62109375 C360.27339844 206.87664062 360.01945312 208.1321875 359.7578125 209.42578125 C354.77406785 233.78994435 354.77406785 233.78994435 350.52734375 236.62109375 C340.08039217 238.29728374 330.90211065 233.68663248 322.109375 228.57421875 C314.26065173 222.63721174 309.8246145 216.31609304 305.83984375 207.37109375 C305.37215576 206.35635986 304.90446777 205.34162598 304.42260742 204.29614258 C303.10230721 201.41366038 301.80852661 198.52113965 300.52734375 195.62109375 C300.20507812 194.89519043 299.8828125 194.16928711 299.55078125 193.42138672 C295.52734375 184.28639749 295.52734375 184.28639749 295.52734375 181.62109375 C291.89734375 183.60109375 288.26734375 185.58109375 284.52734375 187.62109375 C281.97911276 210.93921339 281.97911276 210.93921339 290.33984375 231.74609375 C292.09394157 233.77504056 293.88815269 235.73855373 295.74804688 237.67089844 C298.7527008 240.96414426 301.13437333 244.66130455 303.58984375 248.37109375 C304.45426013 249.63772255 305.32006141 250.90340776 306.1875 252.16796875 C307.7143438 254.41330893 309.22335681 256.66820399 310.7265625 258.9296875 C311.8639036 260.62953136 313.04315759 262.3027049 314.27734375 263.93359375 C316.11419428 267.88282238 316.44512117 271.35270035 315.52734375 275.62109375 C313.20862218 279.54396232 310.88000893 282.17020536 306.52734375 283.62109375 C304.99937315 283.72725862 303.46733401 283.77962425 301.93579102 283.7980957 C301.00795303 283.81093094 300.08011505 283.82376617 299.12416077 283.83699036 C298.12412521 283.84437729 297.12408966 283.85176422 296.09375 283.859375 C295.06426743 283.86744675 294.03478485 283.87551849 292.97410583 283.88383484 C290.7961495 283.89766579 288.61817159 283.90839236 286.44018555 283.91625977 C283.1061934 283.93350916 279.77318357 283.97740891 276.43945312 284.02148438 C274.32422604 284.03160824 272.20899054 284.0401253 270.09375 284.046875 C269.09573868 284.06438309 268.09772736 284.08189117 267.06947327 284.09992981 C260.16031254 284.07821828 260.16031254 284.07821828 256.89794922 281.72216797 C255.36862146 279.37777988 255.01397353 278.21044383 255.08984375 275.43359375 C255.09113281 274.73878906 255.09242188 274.04398437 255.09375 273.328125 C255.7440529 269.2681258 257.15084 265.48631628 258.52734375 261.62109375 C257.49996094 260.85925781 256.47257812 260.09742188 255.4140625 259.3125 C229.15080503 239.77388163 229.15080503 239.77388163 224.27734375 228.80859375 C223.7565625 227.64714844 223.23578125 226.48570312 222.69921875 225.2890625 C222.3125 224.40863281 221.92578125 223.52820313 221.52734375 222.62109375 C212.75649465 221.0321253 212.75649465 221.0321253 204.3828125 222.71484375 C202.75776729 224.39554928 202.75776729 224.39554928 201.52734375 227.62109375 C201.90646539 231.92673506 203.71614981 235.19533945 205.765625 238.953125 C206.08766403 239.54856613 206.40970306 240.14400726 206.74150085 240.75749207 C207.76814296 242.65293748 208.80361491 244.54337525 209.83984375 246.43359375 C212.41153897 251.15779847 214.97259749 255.88770457 217.52734375 260.62109375 C217.97883789 261.44762451 218.43033203 262.27415527 218.89550781 263.12573242 C221.30549777 267.68415064 222.10931535 270.55248378 221.27734375 275.5703125 C219.94399943 279.21617588 217.76021793 280.55205427 214.52734375 282.62109375 C211.67845235 283.57072422 209.82063078 283.76814297 206.85986328 283.81396484 C205.44291672 283.83805923 205.44291672 283.83805923 203.99734497 283.86264038 C199.68752845 283.90716108 195.3778637 283.94813665 191.06787109 283.97119141 C188.79432959 283.98776762 186.52084054 284.01507925 184.24755859 284.05322266 C180.96814975 284.10795085 177.68996005 284.12985771 174.41015625 284.14453125 C173.39543243 284.16720062 172.38070862 284.18987 171.3352356 284.21322632 C164.28512532 284.19209652 164.28512532 284.19209652 160.37060547 281.24243164 C157.72034491 277.47344521 158.24915865 275.40885178 158.953125 271.04296875 C160.47364905 264.62987411 164.18825767 260.36740797 168.52734375 255.62109375 C167.14675966 252.67130766 165.54302136 250.14510384 163.59375 247.5390625 C163.02720703 246.77142578 162.46066406 246.00378906 161.87695312 245.21289062 C160.69254545 243.61944161 159.50507764 242.0282623 158.31445312 240.43945312 C153.49948958 233.8974425 150.3072438 228.50331459 149.83984375 220.18359375 C149.77410156 219.13300781 149.70835937 218.08242188 149.640625 217 C149.58455078 215.82244141 149.58455078 215.82244141 149.52734375 214.62109375 C148.23570312 214.64042969 146.9440625 214.65976562 145.61328125 214.6796875 C140.74087301 214.67873325 135.98701948 214.25452279 131.15234375 213.68359375 C130.35957031 213.59658203 129.56679687 213.50957031 128.75 213.41992188 C125.53747615 213.05300925 122.60352003 212.64648584 119.52734375 211.62109375 C119.25921875 212.36359375 118.99109375 213.10609375 118.71484375 213.87109375 C117.52734375 216.62109375 117.52734375 216.62109375 115.83984375 218.68359375 C114.32547047 220.4706004 114.32547047 220.4706004 114.70849609 222.33178711 C115.84923326 225.52102156 117.5607481 228.30906077 119.31640625 231.1875 C119.6979184 231.82163315 120.07943054 232.4557663 120.47250366 233.1091156 C121.69432978 235.13687565 122.92337256 237.16015807 124.15234375 239.18359375 C124.95617099 240.51731194 125.75956068 241.85129394 126.5625 243.18554688 C130.65644013 249.97106883 134.80692436 256.69117921 139.22192383 263.27539062 C141.21647054 266.85938255 141.98808788 270.53906243 141.52734375 274.62109375 C139.89801097 278.82632408 137.37557974 280.34356632 133.52734375 282.62109375 C130.81301636 283.52586955 129.1881903 283.75600512 126.39477539 283.78222656 C125.15317406 283.79663788 125.15317406 283.79663788 123.88648987 283.81134033 C122.55048988 283.81771515 122.55048988 283.81771515 121.1875 283.82421875 C120.26899765 283.82991882 119.3504953 283.8356189 118.40415955 283.8414917 C116.46159007 283.85093611 114.51900462 283.85747346 112.57641602 283.86132812 C109.60469703 283.87104518 106.63366639 283.90207836 103.66210938 283.93359375 C101.77474369 283.94012287 99.88737306 283.9453737 98 283.94921875 C96.66703636 283.96773895 96.66703636 283.96773895 95.30714417 283.9866333 C89.16312817 283.96444158 89.16312817 283.96444158 85.96630859 282.23803711 C84.03652664 280.06956988 84.02209458 278.81067508 84.08984375 275.93359375 C84.09177734 274.72123047 84.09177734 274.72123047 84.09375 273.484375 C84.68395831 269.58687329 86.0589409 266.27846849 87.52734375 262.62109375 C84.86270451 260.53515758 82.19540726 258.45264795 79.52734375 256.37109375 C78.31449707 255.42351196 78.31449707 255.42351196 77.07714844 254.45678711 C73.07951361 251.34391949 69.067329 248.26067891 64.98046875 245.265625 C64.27148438 244.74452148 63.5625 244.22341797 62.83203125 243.68652344 C61.50396394 242.71509017 60.17092865 241.75039662 58.83203125 240.79394531 C53.8941058 237.17644613 48.36957731 233.07158449 46.86425781 226.90454102 C46.75307617 226.15100342 46.64189453 225.39746582 46.52734375 224.62109375 C45.85155273 224.83314453 45.17576172 225.04519531 44.47949219 225.26367188 C41.41390315 226.22199755 38.34568841 227.17162987 35.27734375 228.12109375 C34.21386719 228.45496094 33.15039062 228.78882813 32.0546875 229.1328125 C30.51748047 229.60654297 30.51748047 229.60654297 28.94921875 230.08984375 C28.0065918 230.38310547 27.06396484 230.67636719 26.09277344 230.97851562 C23.52734375 231.62109375 23.52734375 231.62109375 19.52734375 231.62109375 C19.19734375 232.61109375 18.86734375 233.60109375 18.52734375 234.62109375 C17.86734375 234.62109375 17.20734375 234.62109375 16.52734375 234.62109375 C16.28781982 235.19021484 16.0482959 235.75933594 15.80151367 236.34570312 C14.26392638 239.09149994 12.4257517 240.86427336 10.140625 243.02734375 C9.28533203 243.85363281 8.43003906 244.67992187 7.54882812 245.53125 C5.73670636 247.26367499 3.91894151 248.99021572 2.09570312 250.7109375 C0.81856445 251.95037109 0.81856445 251.95037109 -0.484375 253.21484375 C-1.27287842 253.96443359 -2.06138184 254.71402344 -2.8737793 255.48632812 C-4.72863793 257.46749121 -4.72863793 257.46749121 -4.28051758 259.78027344 C-3.43400293 261.70917051 -2.50473206 263.53460591 -1.47265625 265.37109375 C0.67169323 269.58909987 1.44946642 272.87057657 1.52734375 277.62109375 C0.27734375 280.55859375 0.27734375 280.55859375 -1.47265625 282.62109375 C-4.20378729 283.53147076 -5.85114766 283.75622993 -8.6652832 283.78222656 C-9.50658279 283.79183411 -10.34788239 283.80144165 -11.2146759 283.81134033 C-12.57407539 283.81771515 -12.57407539 283.81771515 -13.9609375 283.82421875 C-14.89689255 283.82991882 -15.8328476 283.8356189 -16.79716492 283.8414917 C-18.77842072 283.85093858 -20.75969222 283.85747444 -22.7409668 283.86132812 C-25.76313911 283.87102312 -28.78462822 283.90204513 -31.80664062 283.93359375 C-33.73306889 283.94012514 -35.659502 283.94537507 -37.5859375 283.94921875 C-38.93622795 283.96773895 -38.93622795 283.96773895 -40.313797 283.9866333 C-46.70359464 283.96409286 -50.95305079 282.87547758 -55.84765625 278.49609375 C-58.09574092 274.51871319 -58.0752966 271.04155552 -57.47265625 266.62109375 C-56.16597647 262.61297183 -54.40330016 258.86368576 -52.59765625 255.05859375 C-51.58238876 252.84087089 -50.56942509 250.62209211 -49.55859375 248.40234375 C-49.04264648 247.27828125 -48.52669922 246.15421875 -47.99511719 244.99609375 C-45.62034857 239.73169328 -43.42014887 234.39884285 -41.22265625 229.05859375 C-40.39757112 227.07533951 -39.57206257 225.09226137 -38.74609375 223.109375 C-37.33658802 219.71822861 -35.94668879 216.32033686 -34.57421875 212.9140625 C-29.47245089 200.45285606 -23.20048711 191.64183603 -11.47265625 184.62109375 C-10.80073242 184.34749023 -10.12880859 184.07388672 -9.43652344 183.79199219 C-6.93110702 182.29821084 -6.62334462 181.26494024 -5.75390625 178.51171875 C-5.32368164 177.18865723 -5.32368164 177.18865723 -4.88476562 175.83886719 C-4.43327148 174.36981934 -4.43327148 174.36981934 -3.97265625 172.87109375 C-3.64587891 171.84790039 -3.31910156 170.82470703 -2.98242188 169.77050781 C-2.23559899 167.42461333 -1.49590059 165.07644385 -0.76171875 162.7265625 C0.43207968 158.90922752 1.65567692 155.10184018 2.88317871 151.29522705 C3.99391415 147.84898 5.09838484 144.40074614 6.20141602 140.95202637 C6.75143367 139.23328215 7.30270076 137.51493726 7.85522461 135.79699707 C8.63729585 133.36000092 9.41148951 130.92063828 10.18359375 128.48046875 C10.42070068 127.74598511 10.65780762 127.01150146 10.90209961 126.25476074 C11.97389308 122.84130967 12.52734375 120.23937394 12.52734375 116.62109375 C11.3971582 116.26805176 10.26697266 115.91500977 9.10253906 115.55126953 C4.90452414 114.23893056 0.70791737 112.92213783 -3.48828125 111.60400391 C-5.30365588 111.03443012 -7.11940874 110.46606035 -8.93554688 109.89892578 C-11.54788279 109.08292807 -14.15882217 108.26259178 -16.76953125 107.44140625 C-17.58008972 107.18924347 -18.39064819 106.93708069 -19.22576904 106.67727661 C-19.98625549 106.43717865 -20.74674194 106.19708069 -21.53027344 105.94970703 C-22.19645691 105.74096954 -22.86264038 105.53223206 -23.54901123 105.31716919 C-29.13532972 103.29574681 -29.13532972 103.29574681 -30.47265625 100.62109375 C-30.84046142 95.38304081 -30.07712001 91.96798365 -27.84765625 87.24609375 C-25.06256825 81.16423491 -22.76346468 75.0054752 -20.65380859 68.65869141 C-16.61686601 56.76530351 -16.61686601 56.76530351 -12.47265625 52.62109375 C-10.42356726 51.90464942 -8.34599339 51.26870515 -6.2578125 50.67578125 C-5.01451172 50.32128906 -3.77121094 49.96679688 -2.49023438 49.6015625 C-1.84127197 49.42028809 -1.19230957 49.23901367 -0.52368164 49.05224609 C1.45597935 48.49857295 3.4321917 47.93373107 5.40820312 47.3671875 C15.12012076 44.62109375 15.12012076 44.62109375 18.52734375 44.62109375 C19.02234375 39.67109375 19.02234375 39.67109375 19.52734375 34.62109375 C18.56828125 34.43546875 18.56828125 34.43546875 17.58984375 34.24609375 C14.52734375 33.62109375 14.52734375 33.62109375 12.5078125 32.96875 C8.01220716 31.63817679 5.44624037 31.30744032 1.21484375 33.49609375 C-4.38253087 36.31414914 -9.30917891 36.70266549 -15.47265625 35.62109375 C-27.58801962 31.34352028 -36.48865837 24.04654444 -42.6953125 12.76171875 C-43.62597317 10.1988944 -43.77298109 8.32843385 -43.47265625 5.62109375 C-33.01033762 -5.97228636 -13.33913767 -6.45914348 0 0 Z M-26.47265625 10.62109375 C-24.69103256 15.43147771 -20.93247005 18.34218657 -16.51171875 20.640625 C-12.17730111 22.45908757 -9.10717496 23.02222731 -4.47265625 21.62109375 C-3.48265625 20.96109375 -2.49265625 20.30109375 -1.47265625 19.62109375 C-2.66620682 16.2240652 -3.68887778 13.93021875 -6.47265625 11.62109375 C-13.04970096 9.27841306 -19.70260573 9.02814069 -26.47265625 10.62109375 Z M203.08984375 54.05859375 C202.17058105 54.37323578 201.25131836 54.68787781 200.30419922 55.01205444 C179.60804729 62.102297 159.09428454 69.68894855 138.58998108 77.31225586 C100.72915897 91.38195543 100.72915897 91.38195543 82.2253418 97.39013672 C79.30853848 98.34184428 76.40782027 99.33416765 73.5065155 100.33184814 C67.8486548 102.26927113 62.19554571 104.00354679 56.40620422 105.50849915 C39.03289104 109.47251324 39.03289104 109.47251324 25.15136719 119.63476562 C21.64519733 126.49630233 20.17535378 133.64400686 19.05859375 141.22216797 C18.30496718 146.04385414 16.94617578 150.62951102 15.58984375 155.30859375 C14.08499417 161.04507268 12.78878502 166.82690162 11.52734375 172.62109375 C15.08114231 171.23949338 15.08114231 171.23949338 18.46484375 169.49609375 C21.26959707 168.3061984 23.51464557 168.35912 26.52734375 168.62109375 C28.52734375 170.62109375 28.52734375 170.62109375 28.65234375 174.24609375 C28.61109375 175.35984375 28.56984375 176.47359375 28.52734375 177.62109375 C27.74721924 178.06388672 26.96709473 178.50667969 26.16333008 178.96289062 C23.20068805 180.64594626 20.2392595 182.33110152 17.27856445 184.01757812 C16.00982061 184.73974437 14.74063195 185.46112981 13.47094727 186.18164062 C6.71059149 190.01867173 -0.02610711 193.89409116 -6.6796875 197.9140625 C-7.71198486 198.53563232 -8.74428223 199.15720215 -9.80786133 199.79760742 C-19.59627844 206.49570063 -22.98389396 219.15237121 -26.88623047 229.78735352 C-29.29177947 236.27991969 -31.93024364 242.66980095 -34.59765625 249.05859375 C-35.01748779 250.06494873 -35.43731934 251.07130371 -35.86987305 252.1081543 C-38.33314082 257.98232516 -40.88432582 263.79735028 -43.47265625 269.62109375 C-34.23265625 269.62109375 -24.99265625 269.62109375 -15.47265625 269.62109375 C-17.10657743 265.57343852 -17.10657743 265.57343852 -20.09765625 263.74609375 C-22.47265625 261.62109375 -22.47265625 261.62109375 -23.00219727 258.90820312 C-22.23954942 254.17409038 -19.76088001 252.1343467 -16.375 248.90234375 C-15.43437462 247.97089539 -15.43437462 247.97089539 -14.4747467 247.02062988 C-12.46686111 245.03964929 -10.4388781 243.08070661 -8.41015625 241.12109375 C-7.07094841 239.80342074 -5.73304262 238.48442301 -4.39648438 237.1640625 C2.08645794 230.79080879 2.08645794 230.79080879 4.82398987 228.22694397 C5.93664753 227.17797724 7.02659209 226.10423516 8.088974 225.00437927 C13.22745085 220.00991492 19.02318066 218.56368384 25.8359375 216.78125 C27.63346214 216.28618202 27.63346214 216.28618202 29.46730042 215.78111267 C32.652125 214.90726746 35.84070599 214.04958911 39.03210449 213.20013428 C42.1907607 212.35595732 45.34416896 211.49268798 48.49804688 210.63085938 C49.73269684 210.29428314 50.9673468 209.95770691 52.2394104 209.6109314 C54.7154055 208.93418336 57.19065173 208.25468932 59.66513062 207.57241821 C65.61063432 205.93725515 71.55740012 204.35839115 77.55126953 202.90966797 C79.72175283 202.35412683 81.89216664 201.79831412 84.0625 201.2421875 C85.05124619 201.02321304 86.03999237 200.80423859 87.05870056 200.57862854 C91.07689825 199.51495607 93.68588487 198.76017543 96.21017456 195.3430481 C97.50346505 192.8035413 98.55347551 190.29766489 99.52734375 187.62109375 C100.21266443 185.95352978 100.89986558 184.28673602 101.58984375 182.62109375 C102.23804363 180.95534606 102.88385278 179.28866619 103.52734375 177.62109375 C104.5518932 175.04263234 105.58338392 172.46704899 106.61669922 169.89208984 C107.38468757 167.97685456 108.14620927 166.05902808 108.90625 164.140625 C109.95843997 161.73413111 110.88499704 159.66778722 112.52734375 157.62109375 C116.15234375 156.30859375 116.15234375 156.30859375 119.52734375 156.62109375 C121.46484375 157.68359375 121.46484375 157.68359375 122.52734375 159.62109375 C122.98277913 164.60993293 121.71421271 168.30462907 119.68359375 172.76953125 C119.25077087 173.75561874 119.25077087 173.75561874 118.8092041 174.7616272 C117.89216363 176.84449426 116.9600705 178.92021093 116.02734375 180.99609375 C115.40003252 182.41361634 114.77371969 183.83158121 114.1484375 185.25 C112.61957809 188.71225581 111.07718956 192.1681844 109.52734375 195.62109375 C113.19641051 198.06713826 116.42522484 198.26453396 120.6953125 198.69140625 C121.49012527 198.77736053 122.28493805 198.86331482 123.10383606 198.95187378 C125.64008375 199.22435741 128.17736397 199.48535924 130.71484375 199.74609375 C132.43562731 199.92893206 134.15633173 200.11251686 135.87695312 200.296875 C140.0928809 200.74694526 144.30977076 201.18672262 148.52734375 201.62109375 C148.45805664 200.62891846 148.38876953 199.63674316 148.31738281 198.61450195 C147.3600408 184.72832406 147.3600408 184.72832406 147.27734375 178.80859375 C147.2515625 177.66777344 147.22578125 176.52695312 147.19921875 175.3515625 C147.36164063 173.99998047 147.36164063 173.99998047 147.52734375 172.62109375 C150.97980199 170.31945493 152.47473088 170.27619053 156.52734375 170.62109375 C159.26026709 173.35401709 159.09358032 175.3373299 159.56640625 179.15625 C159.6489566 179.81883316 159.73150696 180.48141632 159.81655884 181.16407776 C160.41736127 186.18040159 160.85327962 191.20525969 161.23828125 196.2421875 C161.29389221 196.96507965 161.34950317 197.6879718 161.40679932 198.43276978 C161.63186822 201.39300434 161.85501729 204.35304787 162.05371094 207.31518555 C162.68100546 219.08637247 162.68100546 219.08637247 167.52734375 229.62109375 C167.97883789 230.27537354 168.43033203 230.92965332 168.89550781 231.60375977 C170.37520755 233.66743523 171.90698336 235.67840766 173.46484375 237.68359375 C175.49045425 240.32580519 177.51281783 242.97041936 179.52734375 245.62109375 C180.00977539 246.25474854 180.49220703 246.88840332 180.98925781 247.54125977 C184.01807241 251.62690268 185.32585765 254.48319822 185.52734375 259.62109375 C184.52734375 261.62109375 184.52734375 261.62109375 181.71484375 262.93359375 C177.95968423 264.65103288 177.95968423 264.65103288 174.52734375 269.62109375 C185.08734375 269.62109375 195.64734375 269.62109375 206.52734375 269.62109375 C202.56462722 261.69566069 198.55059263 253.87306786 194.27734375 246.12109375 C193.22985742 244.21517961 192.18295824 242.30894262 191.13671875 240.40234375 C190.68264648 239.57798828 190.22857422 238.75363281 189.76074219 237.90429688 C185.73822153 230.45801556 185.73822153 230.45801556 186.52734375 225.62109375 C188.46145152 222.30637642 190.82518342 219.36737131 193.21484375 216.37109375 C194.59132702 214.59359556 195.96629599 212.8149238 197.33984375 211.03515625 C198.03851563 210.13700195 198.7371875 209.23884766 199.45703125 208.31347656 C202.63022935 204.18682225 205.67831505 199.97382505 208.71484375 195.74609375 C209.24231201 195.01616211 209.76978027 194.28623047 210.31323242 193.53417969 C212.52547072 190.46220387 214.67390738 187.3978451 216.66796875 184.1796875 C218.52734375 181.62109375 218.52734375 181.62109375 222.08984375 180.55859375 C225.52734375 180.62109375 225.52734375 180.62109375 227.46484375 181.68359375 C228.9905167 184.46570324 228.78591402 186.47965794 228.52734375 189.62109375 C227.20703125 192.078125 227.20703125 192.078125 225.40234375 194.43359375 C224.76941406 195.28308594 224.13648438 196.13257813 223.484375 197.0078125 C222.83855469 197.87019531 222.19273437 198.73257813 221.52734375 199.62109375 C220.36956117 201.32135147 219.22274958 203.02916009 218.08984375 204.74609375 C217.59613281 205.49117187 217.10242188 206.23625 216.59375 207.00390625 C216.24183594 207.53757812 215.88992188 208.07125 215.52734375 208.62109375 C218.20893035 209.68592173 219.25282259 209.73701863 221.95556641 208.59570312 C222.85839355 208.05751953 223.7612207 207.51933594 224.69140625 206.96484375 C225.71806396 206.3618042 226.74472168 205.75876465 227.80249023 205.13745117 C228.90794189 204.47205322 230.01339355 203.80665527 231.15234375 203.12109375 C232.31309024 202.43526055 233.47464395 201.75079186 234.63696289 201.06762695 C237.05865204 199.64255914 239.47672436 198.2116379 241.89208984 196.77587891 C247.55858254 193.41142839 253.25970236 190.10703129 258.96484375 186.80859375 C260.03839111 186.18694336 261.11193848 185.56529297 262.21801758 184.92480469 C270.94611066 179.89688904 279.80747243 175.17092659 288.76245117 170.56274414 C290.33229766 169.7251597 291.85962019 168.80895263 293.37890625 167.8828125 C296.04934699 166.31453548 297.48112995 166.07433743 300.52734375 166.62109375 C303.88130295 169.4454372 305.44887005 172.17157892 307.078125 176.20703125 C307.52567139 177.2964502 307.97321777 178.38586914 308.43432617 179.50830078 C308.89814697 180.65927246 309.36196777 181.81024414 309.83984375 182.99609375 C310.81873907 185.35666324 311.80048962 187.71605082 312.78515625 190.07421875 C313.25727539 191.20666016 313.72939453 192.33910156 314.21582031 193.50585938 C320.62658727 209.37679075 320.62658727 209.37679075 333.41015625 219.98828125 C338.33746578 221.93422798 338.33746578 221.93422798 343.52734375 222.62109375 C344.45169569 218.58543242 345.3728423 214.54905572 346.29064941 210.51190186 C346.61442783 209.08770725 346.9385637 207.66359385 347.26306152 206.23956299 C349.42762887 196.72737421 351.51522069 187.21284867 353.19628906 177.60058594 C353.97773517 173.38749108 354.6791471 169.88991016 357.52734375 166.62109375 C360.06829252 165.56391068 362.25299643 164.86899871 364.90234375 164.24609375 C365.66095703 164.05039795 366.41957031 163.85470215 367.20117188 163.65307617 C369.97054319 162.94859171 372.74724263 162.2819952 375.52734375 161.62109375 C377.3357373 161.19062744 377.3357373 161.19062744 379.18066406 160.75146484 C379.82057281 160.59939575 380.46048157 160.44732666 381.11978149 160.29064941 C382.43874239 159.97700165 383.75756986 159.66279229 385.07626343 159.34802246 C388.36500364 158.56342149 391.65527335 157.7878702 394.95068359 157.03173828 C396.16191895 156.7479834 397.3731543 156.46422852 398.62109375 156.171875 C399.71099609 155.92091064 400.80089844 155.66994629 401.92382812 155.41137695 C404.65777367 154.80482175 404.65777367 154.80482175 406.52734375 152.62109375 C401.49344419 151.87997388 396.45810932 151.14991111 391.42114258 150.42993164 C389.70879203 150.18359804 387.99686821 149.93427842 386.28540039 149.68188477 C383.82154459 149.31906894 381.35634047 148.96711238 378.890625 148.6171875 C378.12897537 148.50265732 377.36732574 148.38812714 376.58259583 148.27012634 C370.64819254 147.44484934 366.63304522 147.51337131 361.71484375 151.01953125 C361.03164063 151.4990625 360.3484375 151.97859375 359.64453125 152.47265625 C358.94585937 152.97539062 358.2471875 153.478125 357.52734375 153.99609375 C345.27945258 162.67356646 345.27945258 162.67356646 341.83984375 162.43359375 C339.52734375 161.62109375 339.52734375 161.62109375 337.52734375 159.62109375 C337.15234375 156.74609375 337.15234375 156.74609375 337.52734375 153.62109375 C340.46052382 150.15460821 343.99369843 147.83868852 347.77734375 145.37109375 C348.855 144.6646875 349.93265625 143.95828125 351.04296875 143.23046875 C351.8628125 142.699375 352.68265625 142.16828125 353.52734375 141.62109375 C350.50425915 136.84125297 347.08672584 132.6619677 343.33984375 128.43359375 C339.49644982 124.05092629 335.6918555 119.65584206 332.02734375 115.12109375 C328.45192678 110.7044022 324.76131234 106.40332501 321.02734375 102.12109375 C316.51252443 96.94183422 312.09496445 91.70273543 307.76953125 86.36328125 C304.76744668 82.69174228 301.69869938 79.07878531 298.61938477 75.47192383 C295.60996034 71.93710295 292.71432321 68.32987837 289.83984375 64.68359375 C279.36337613 51.93845444 263.85523051 45.04844441 247.609375 43.30859375 C232.52922216 42.65735908 217.14881735 49.21063323 203.08984375 54.05859375 Z M365.52734375 182.62109375 C364.86734375 185.59109375 364.20734375 188.56109375 363.52734375 191.62109375 C372.10734375 189.64109375 380.68734375 187.66109375 389.52734375 185.62109375 C389.52734375 185.29109375 389.52734375 184.96109375 389.52734375 184.62109375 C386.84040653 184.28258197 384.15294086 183.95015775 381.46484375 183.62109375 C380.71267578 183.52570313 379.96050781 183.4303125 379.18554688 183.33203125 C374.59313058 182.77537473 370.15313025 182.52280347 365.52734375 182.62109375 Z M261.3828125 200.015625 C260.47261101 200.53765755 260.47261101 200.53765755 259.54402161 201.07023621 C257.59862607 202.18734813 255.65675672 203.31044106 253.71484375 204.43359375 C252.41753773 205.1794193 251.12001415 205.92486655 249.82226562 206.66992188 C244.70023498 209.61462474 239.58489868 212.5664841 234.52734375 215.62109375 C236.94735968 229.07353525 245.08780534 234.93997966 255.52734375 242.62109375 C257.73629223 244.27377952 259.94182621 245.93094969 262.1472168 247.58837891 C263.53938289 248.63094776 264.9352424 249.66860765 266.33520508 250.70068359 C267.28882935 251.40572021 267.28882935 251.40572021 268.26171875 252.125 C268.82084961 252.53564697 269.37998047 252.94629395 269.95605469 253.36938477 C274.4190046 256.92462781 274.4190046 256.92462781 274.96484375 260.43359375 C274.52734375 263.62109375 274.52734375 263.62109375 270.52734375 269.62109375 C280.75734375 269.62109375 290.98734375 269.62109375 301.52734375 269.62109375 C297.92251039 264.21384371 294.34688845 258.9322513 290.46484375 253.74609375 C285.97697759 247.69024473 281.65681688 241.53042948 277.40234375 235.30859375 C276.83378662 234.4779541 276.26522949 233.64731445 275.67944336 232.79150391 C272.11633338 227.55820314 270.41453829 224.75783478 270.2109375 218.30078125 C270.16904297 217.04394531 270.12714844 215.78710938 270.08398438 214.4921875 C270.04466797 213.17347656 270.00535156 211.85476563 269.96484375 210.49609375 C269.92164863 209.15623624 269.87803402 207.81639219 269.83398438 206.4765625 C269.72763394 203.1915156 269.62560567 199.90639094 269.52734375 196.62109375 C266.32115274 196.62109375 264.13384401 198.43125822 261.3828125 200.015625 Z M91.44140625 211.51953125 C90.78079193 211.71455231 90.12017761 211.90957336 89.43954468 212.11050415 C87.34145861 212.73142668 85.2468737 213.36329065 83.15234375 213.99609375 C80.39536684 214.81922455 77.6371488 215.63815324 74.87890625 216.45703125 C74.2258551 216.65182068 73.57280396 216.84661011 72.89996338 217.04730225 C68.46689925 218.36355701 64.02835762 219.56271581 59.52734375 220.62109375 C61.30099553 229.29153088 74.04901251 235.51792142 80.90234375 240.55859375 C82.12473755 241.45940674 82.12473755 241.45940674 83.37182617 242.37841797 C87.10746736 245.1266043 90.85188436 247.85668045 94.640625 250.53125 C95.8323414 251.39410305 97.02376958 252.25735439 98.21484375 253.12109375 C99.24996094 253.85328125 100.28507812 254.58546875 101.3515625 255.33984375 C103.52734375 257.62109375 103.52734375 257.62109375 104.109375 260.52734375 C103.52734375 263.62109375 103.52734375 263.62109375 99.52734375 269.62109375 C108.43734375 269.62109375 117.34734375 269.62109375 126.52734375 269.62109375 C121.59786145 261.40141466 121.59786145 261.40141466 116.58203125 253.23828125 C115.89753906 252.13355469 115.21304688 251.02882813 114.5078125 249.890625 C113.45150646 248.18760098 112.39517586 246.48458903 111.33544922 244.78369141 C99.48913451 225.75878231 99.48913451 225.75878231 100.52734375 218.62109375 C101.69439885 216.14613207 103.06755044 213.94763934 104.52734375 211.62109375 C104.52734375 210.96109375 104.52734375 210.30109375 104.52734375 209.62109375 C99.781915 209.40090296 95.98197263 210.15958681 91.44140625 211.51953125 Z " fill="#0B0B0B" transform="translate(65.47265625,113.37890625)"/>
<path d="M0 0 C0.66 0.33 1.32 0.66 2 1 C0.7934375 2.0828125 0.7934375 2.0828125 -0.4375 3.1875 C-3.02292072 6.02515689 -3.68042813 7.27166147 -4 11 C-4.33 11 -4.66 11 -5 11 C-5.3125 8.3125 -5.3125 8.3125 -5 5 C-2.5 2.125 -2.5 2.125 0 0 Z " fill="#414141" transform="translate(407,262)"/>
<path d="M0 0 C-0.8353125 0.37125 -0.8353125 0.37125 -1.6875 0.75 C-4.39971127 2.21606015 -6.63587365 4.02989471 -9 6 C-7.01260984 0.46369883 -5.82303895 -0.15323787 0 0 Z " fill="#636363" transform="translate(291,293)"/>
</svg>
