<?xml version="1.0" encoding="UTF-8"?>
<svg version="1.1" xmlns="http://www.w3.org/2000/svg" width="512" height="512">
<path d="M0 0 C2.11556456 1.88115297 2.87993303 3.37165101 3.99609375 6.02734375 C6.56799687 12.11209014 8.215735 15.70854188 14.3515625 18.359375 C18.46346877 19.89749066 22.64462449 21.16951338 26.88989258 22.28564453 C28.75 23.0625 28.75 23.0625 30.75 26.0625 C31.18269358 31.70879659 30.1703852 36.84297292 28.9375 42.3125 C28.77185547 43.11429688 28.60621094 43.91609375 28.43554688 44.7421875 C28.26474609 45.51304687 28.09394531 46.28390625 27.91796875 47.078125 C27.69016724 48.11888184 27.69016724 48.11888184 27.45776367 49.18066406 C26.55770904 51.57377241 25.82213479 52.53678152 23.75 54.0625 C20.64306641 55.0546875 20.64306641 55.0546875 16.8515625 55.9375 C15.47081782 56.2856401 14.09062413 56.63597145 12.7109375 56.98828125 C10.5469594 57.53147992 8.38334502 58.06061485 6.20703125 58.55224609 C-2.42279222 60.31310163 -2.42279222 60.31310163 -9.18920898 65.4699707 C-10.48562737 68.30072133 -11.3924942 71.07174817 -12.25 74.0625 C-12.97340023 75.81552707 -13.71893047 77.55961616 -14.48828125 79.29296875 C-15.18132902 80.94462466 -15.87275295 82.59696295 -16.5625 84.25 C-16.92150391 85.10658203 -17.28050781 85.96316406 -17.65039062 86.84570312 C-18.518402 88.91735695 -19.38492854 90.98961725 -20.25 93.0625 C-19.16924194 93.3112085 -19.16924194 93.3112085 -18.06665039 93.56494141 C-12.60499468 94.86954565 -7.28824862 96.32702047 -1.99609375 98.2109375 C-0.95646484 98.57574219 0.08316406 98.94054687 1.15429688 99.31640625 C3.27071409 100.06768855 5.38019382 100.83878973 7.48242188 101.62890625 C8.52076172 101.98597656 9.55910156 102.34304687 10.62890625 102.7109375 C11.5422876 103.04270996 12.45566895 103.37448242 13.39672852 103.71630859 C22.36575806 104.64227029 32.09979112 99.64330438 40.41796875 96.66015625 C42.22917961 96.0160807 42.22917961 96.0160807 44.07698059 95.35899353 C47.34976604 94.19505607 50.62075308 93.02614152 53.89141846 91.85626221 C57.36339998 90.61538846 60.83707871 89.37928289 64.31054688 88.14257812 C72.12352887 85.35978583 79.93407067 82.57018698 87.744133 79.77921295 C90.87433721 78.66076497 94.00479823 77.54303693 97.13525391 76.42529297 C106.27222203 73.16277437 115.40881553 69.89920841 124.54492188 66.63427734 C141.31166822 60.643073 158.08220551 54.66259079 174.85913086 48.69995117 C177.53166631 47.750043 180.20386202 46.79918926 182.87573242 45.84741211 C195.09097074 41.49678085 207.31008306 37.15850934 219.59765625 33.015625 C220.42806931 32.73281174 221.25848236 32.44999847 222.11405945 32.15861511 C228.60253781 29.99505784 234.90802673 28.59951534 241.75 28.0625 C242.8328125 27.95808594 242.8328125 27.95808594 243.9375 27.8515625 C263.03251882 26.91127748 281.4471794 34.88332089 295.6875 47.125 C304.46932117 55.30742703 311.85799039 64.92016932 319.40625 74.21875 C322.64963763 78.15406033 325.98146797 82.01069302 329.31079102 85.87329102 C332.32245009 89.37485302 335.2805895 92.91036557 338.1875 96.5 C341.78636086 100.93489387 345.49732766 105.25817027 349.25 109.5625 C353.84627906 114.83460454 358.35102239 120.1590765 362.75 125.59765625 C363.41 126.41105469 364.07 127.22445312 364.75 128.0625 C365.48992187 129.12210938 366.22984375 130.18171875 366.9921875 131.2734375 C370.43669605 134.75697731 373.2038306 135.18146698 377.875 135.625 C379.64068145 135.84720812 381.40630125 136.06990645 383.171875 136.29296875 C384.18314453 136.41075684 385.19441406 136.52854492 386.23632812 136.64990234 C392.7496197 137.41473439 399.25260267 138.24972944 405.75189209 139.12521362 C408.09593948 139.43367581 410.44217878 139.71642166 412.78955078 139.99829102 C414.26350643 140.19296497 415.7373095 140.38879861 417.2109375 140.5859375 C418.51853027 140.75013184 419.82612305 140.91432617 421.17333984 141.08349609 C425.61511116 142.29929834 427.48228695 143.86867531 430.75 147.0625 C432.60764357 150.77778715 432.18493774 155.0073452 431.75 159.0625 C430.24353164 162.14093534 429.08093513 163.51535334 425.89355469 164.82568359 C420.12509096 166.6898027 414.32101416 168.29124106 408.4375 169.75 C407.55771484 169.97494141 406.67792969 170.19988281 405.77148438 170.43164062 C404.92263672 170.64369141 404.07378906 170.85574219 403.19921875 171.07421875 C402.43955811 171.26459717 401.67989746 171.45497559 400.8972168 171.65112305 C398.75 172.0625 398.75 172.0625 394.75 172.0625 C394.75 172.7225 394.75 173.3825 394.75 174.0625 C395.31847656 174.02769531 395.88695312 173.99289062 396.47265625 173.95703125 C402.08489751 173.76027488 405.82389983 174.30388391 410.75 177.0625 C413.26745306 179.41212285 413.73794225 181.01685279 414.625 184.375 C414.77908693 188.9205644 414.15789253 191.19527867 411.75 195.0625 C406.60118321 198.58254655 400.66292331 200.08186825 394.65625 201.421875 C393.40805481 201.71303192 393.40805481 201.71303192 392.13464355 202.0100708 C389.50851716 202.62037996 386.87944137 203.21665411 384.25 203.8125 C382.45551447 204.22693608 380.66124117 204.6422922 378.8671875 205.05859375 C374.49717102 206.07054006 370.12445478 207.06992325 365.75 208.0625 C365.1119721 210.41077609 364.47702705 212.75981731 363.84375 215.109375 C363.57643066 216.09139893 363.57643066 216.09139893 363.30371094 217.09326172 C361.84794953 222.50896128 360.69816791 227.94192762 359.65625 233.453125 C358.56539078 236.59404725 357.67493115 237.52549751 354.75 239.0625 C343.53023412 241.0809668 333.31213412 236.08326309 324.24609375 229.94921875 C310.37108117 219.46153319 304.56415207 199.4799949 297.75 184.0625 C297.05132812 184.4234375 296.35265625 184.784375 295.6328125 185.15625 C294.72273438 185.6203125 293.81265625 186.084375 292.875 186.5625 C291.97007812 187.0265625 291.06515625 187.490625 290.1328125 187.96875 C287.75 189.0625 287.75 189.0625 285.75 189.0625 C284.81983745 209.72116643 284.21600343 225.64545797 298.74658203 241.74267578 C302.31789998 245.87802347 305.30060569 250.42819703 308.375 254.9375 C309.5111619 256.56119819 310.64907108 258.18367571 311.7890625 259.8046875 C312.29920898 260.54050049 312.80935547 261.27631348 313.33496094 262.03442383 C314.21421331 263.29459454 315.10594712 264.54626699 316.01660156 265.78393555 C318.98185592 269.91279571 319.34933371 272.76582432 319.140625 277.72265625 C318.57597587 281.10490452 317.28780781 282.80667083 314.75 285.0625 C311.69184249 286.90870011 309.41458896 287.31788729 305.86132812 287.3371582 C304.89352417 287.34669022 303.92572021 287.35622223 302.92858887 287.36604309 C301.88996704 287.36513168 300.85134521 287.36422028 299.78125 287.36328125 C298.17256042 287.36970894 298.17256042 287.36970894 296.53137207 287.37626648 C294.26522528 287.38200625 291.99906006 287.38251265 289.73291016 287.37817383 C286.26302763 287.37501187 282.793996 287.39848512 279.32421875 287.42382812 C277.12239691 287.42610091 274.92057278 287.42680471 272.71875 287.42578125 C271.68012817 287.434991 270.64150635 287.44420074 269.57141113 287.45368958 C268.1197052 287.44434639 268.1197052 287.44434639 266.63867188 287.43481445 C265.7891394 287.43544388 264.93960693 287.4360733 264.06433105 287.4367218 C261.2295886 286.97835072 259.85603919 285.9793437 257.75 284.0625 C256.11218142 280.52785897 257.16628289 277.69349416 258.1875 274.0625 C259.1929125 270.45563902 259.75 267.84519953 259.75 264.0625 C257.92782038 262.13413853 257.92782038 262.13413853 255.4375 260.41796875 C254.52613281 259.74056641 253.61476563 259.06316406 252.67578125 258.36523438 C251.71027344 257.66720703 250.74476563 256.96917969 249.75 256.25 C230.66979737 242.23592014 230.66979737 242.23592014 227.375 234.875 C226.68277344 233.36873047 226.68277344 233.36873047 225.9765625 231.83203125 C224.75 229.0625 224.75 229.0625 224.07421875 226.7734375 C222.73090329 224.6702807 222.73090329 224.6702807 219.23046875 224.20703125 C217.80228235 224.06467879 216.37051214 223.95535433 214.9375 223.875 C214.20934082 223.83238037 213.48118164 223.78976074 212.73095703 223.74584961 C209.58637375 223.68332949 207.26335152 223.76506073 204.51171875 225.359375 C202.93074191 227.37233706 202.14686677 228.51978383 201.75 231.0625 C203.04872854 235.7167689 205.07636315 239.84584515 207.375 244.0703125 C207.72256348 244.71821747 208.07012695 245.36612244 208.42822266 246.03366089 C209.53106819 248.08735165 210.64032363 250.13749353 211.75 252.1875 C212.85821545 254.2454079 213.96511711 256.30401788 215.07177734 258.36276245 C215.7583848 259.63891091 216.44615458 260.91443489 217.13525391 262.1892395 C218.01120075 263.81131017 218.88089492 265.43675326 219.75 267.0625 C220.34748047 268.13927002 220.34748047 268.13927002 220.95703125 269.23779297 C222.33838637 272.4164408 222.17298728 275.69202992 221.75 279.0625 C220.42773546 282.36816134 219.2952255 283.69770685 216.34423828 285.67211914 C211.3149591 287.61762552 206.71573591 287.511045 201.3671875 287.49609375 C199.7294487 287.50395653 199.7294487 287.50395653 198.05862427 287.51197815 C195.7573532 287.51838583 193.45604933 287.51707766 191.15478516 287.50854492 C187.62994466 287.50001197 184.10671275 287.52885275 180.58203125 287.56054688 C178.34375049 287.56215842 176.10546685 287.56158226 173.8671875 287.55859375 C172.812966 287.56982773 171.75874451 287.58106171 170.6725769 287.59263611 C163.42105193 287.52331847 163.42105193 287.52331847 160.08251953 285.23071289 C157.76162816 281.45426799 158.3371537 278.111987 159.1875 273.890625 C160.90704055 267.65729051 164.23938627 263.59782942 168.75 259.0625 C166.90233392 252.95191805 162.46427682 248.36716046 158.53710938 243.4765625 C151.40131528 234.40495139 150.70354985 229.45864806 149.75 217.0625 C139.52 216.0725 129.29 215.0825 118.75 214.0625 C116.77 217.3625 114.79 220.6625 112.75 224.0625 C114.28961178 227.91152944 115.79041915 230.99229107 117.91015625 234.4921875 C118.53519043 235.52851318 119.16022461 236.56483887 119.80419922 237.63256836 C120.46693848 238.7231958 121.12967773 239.81382324 121.8125 240.9375 C122.48555176 242.0519751 123.15860352 243.1664502 123.85205078 244.31469727 C125.19599466 246.53992904 126.54134592 248.76431149 127.88818359 250.98779297 C130.30948362 254.98646233 132.71910935 258.99204768 135.125 263 C135.48730713 263.60118652 135.84961426 264.20237305 136.22290039 264.82177734 C139.20897876 269.78750688 140.35983676 273.18999782 139.75 279.0625 C138.40780273 282.41799318 137.2908851 283.71332974 134.26000977 285.66992188 C129.64683841 287.50017363 125.63414183 287.53016807 120.71484375 287.53125 C119.75856583 287.53886353 118.8022879 287.54647705 117.81703186 287.55432129 C115.80244551 287.56509266 113.78780345 287.56798748 111.77319336 287.56347656 C108.69355483 287.56250192 105.61639008 287.60420555 102.53710938 287.6484375 C100.57552601 287.65364321 98.61393402 287.65633271 96.65234375 287.65625 C95.73452621 287.67264526 94.81670868 287.68904053 93.87107849 287.70593262 C89.32262194 287.65678398 87.360788 287.52763634 83.63867188 284.69311523 C81.75 282.0625 81.75 282.0625 81.62890625 279.37890625 C81.85449219 278.47011719 82.08007812 277.56132812 82.3125 276.625 C82.52003906 275.71878906 82.72757813 274.81257813 82.94140625 273.87890625 C83.7942366 270.90841987 84.74698704 267.98544335 85.75 265.0625 C85.28851563 264.7315332 84.82703125 264.40056641 84.3515625 264.05957031 C75.83985269 257.94913832 67.34561977 251.814997 58.9375 245.5625 C58.28716797 245.08329102 57.63683594 244.60408203 56.96679688 244.11035156 C50.76739861 239.47543943 46.38240801 234.92371513 42.75 228.0625 C40.29086969 228.66355294 37.83273506 229.26828802 35.375 229.875 C34.35599609 230.1234668 34.35599609 230.1234668 33.31640625 230.37695312 C31.88855551 230.73057971 30.46363942 231.09621572 29.04150391 231.47216797 C27.46442179 231.87845228 25.87678655 232.24516112 24.28271484 232.57861328 C16.99803295 234.318679 13.11064103 237.87108208 8.125 243.3125 C6.71866959 244.79926628 5.30982978 246.28366311 3.8984375 247.765625 C3.21749023 248.48685547 2.53654297 249.20808594 1.83496094 249.95117188 C-0.83708435 252.65700884 -3.67803838 255.11397826 -6.59912109 257.54589844 C-8.48528351 259.15816384 -8.48528351 259.15816384 -10.25 262.0625 C-9.91226563 262.5471875 -9.57453125 263.031875 -9.2265625 263.53125 C-5.38470774 269.30513576 -3.03441564 274.25384293 -3.4375 281.375 C-4.31506365 284.27771052 -4.90038324 285.22356253 -7.25 287.0625 C-9.35469055 287.45018005 -9.35469055 287.45018005 -11.80981445 287.46655273 C-13.19188835 287.48557899 -13.19188835 287.48557899 -14.60188293 287.50498962 C-15.59564438 287.50205399 -16.58940582 287.49911835 -17.61328125 287.49609375 C-19.15039009 287.50395653 -19.15039009 287.50395653 -20.71855164 287.51197815 C-22.88812351 287.51840484 -25.05773021 287.51705302 -27.22729492 287.50854492 C-30.53953622 287.50005883 -33.8500396 287.52874982 -37.16210938 287.56054688 C-39.27083282 287.56215961 -41.37955931 287.56157998 -43.48828125 287.55859375 C-44.47597 287.56982773 -45.46365875 287.58106171 -46.48127747 287.59263611 C-52.20664701 287.53493611 -55.81777521 287.07290231 -60.25 283.0625 C-62.82717501 278.78298743 -62.82644066 274.93498397 -62.25 270.0625 C-61.33705186 266.77052309 -60.04059841 263.7085606 -58.6640625 260.5859375 C-58.29133209 259.70554306 -57.91860168 258.82514862 -57.53457642 257.91807556 C-56.33031088 255.08425363 -55.10345646 252.26090862 -53.875 249.4375 C-53.04140285 247.49296291 -52.20904919 245.54789228 -51.37792969 243.60229492 C-49.74862391 239.79500408 -48.11025716 235.99182735 -46.46386719 232.19189453 C-44.62424606 227.94124741 -42.82134103 223.67733191 -41.0390625 219.40234375 C-40.19318175 217.3930298 -39.34688245 215.38389196 -38.5 213.375 C-37.96560303 212.08118408 -37.96560303 212.08118408 -37.42041016 210.76123047 C-32.30147881 198.84132917 -24.04111775 190.4897762 -12.25 185.0625 C-11.59 185.0625 -10.93 185.0625 -10.25 185.0625 C-10.12331436 184.03938217 -9.99662872 183.01626434 -9.86610413 181.96214294 C-9.29862543 178.37027563 -8.47968221 175.13188507 -7.39233398 171.66821289 C-7.01201523 170.44747574 -6.63169647 169.22673859 -6.23985291 167.9690094 C-5.82538295 166.65768821 -5.41079383 165.34640468 -4.99609375 164.03515625 C-4.57106678 162.67767338 -4.14651877 161.32004046 -3.72242737 159.96226501 C-2.61093739 156.40818927 -1.49299732 152.85617536 -0.37365723 149.30456543 C0.76980602 145.67237608 1.9070959 142.03825526 3.04492188 138.40429688 C5.27394356 131.28847044 7.50978957 124.17481294 9.75 117.0625 C5.44985659 115.62178685 1.14883344 114.18371736 -3.15234375 112.74609375 C-4.3599939 112.34144897 -5.56764404 111.9368042 -6.81188965 111.51989746 C-14.6735686 108.89400334 -22.55484947 106.38202063 -30.50390625 104.03515625 C-33.25 103.0625 -33.25 103.0625 -35.25 101.0625 C-35.87167568 94.51757409 -34.39340768 89.83481308 -31.85546875 83.85546875 C-31.50744705 83.0082576 -31.15942535 82.16104645 -30.80085754 81.28816223 C-30.06687134 79.50973018 -29.32608473 77.73409102 -28.57885742 75.96118164 C-27.43624469 73.24701813 -26.31719286 70.52401847 -25.20117188 67.79882812 C-24.48313434 66.06714233 -23.76377875 64.33600235 -23.04296875 62.60546875 C-22.70847214 61.79297165 -22.37397552 60.98047455 -22.02934265 60.14335632 C-21.70923721 59.38859512 -21.38913177 58.63383392 -21.05932617 57.85620117 C-20.78174973 57.19416183 -20.50417328 56.5321225 -20.21818542 55.85002136 C-18.50882845 52.69410512 -16.83351677 51.29012686 -13.49438477 49.98754883 C-12.40440186 49.66810303 -11.31441895 49.34865723 -10.19140625 49.01953125 C-9.00095703 48.66826172 -7.81050781 48.31699219 -6.58398438 47.95507812 C-5.33939453 47.59865234 -4.09480469 47.24222656 -2.8125 46.875 C-1.57177734 46.50697266 -0.33105469 46.13894531 0.94726562 45.75976562 C10.20003769 43.0625 10.20003769 43.0625 14.75 43.0625 C15.41 39.7625 16.07 36.4625 16.75 33.0625 C15.203125 32.588125 13.65625 32.11375 12.0625 31.625 C11.19238281 31.35816406 10.32226562 31.09132812 9.42578125 30.81640625 C4.59173974 29.18400046 4.59173974 29.18400046 -0.25 29.83984375 C-0.91 30.22269531 -1.57 30.60554688 -2.25 31 C-8.89558957 34.17351781 -15.89204828 34.11313315 -22.98828125 32.40234375 C-34.10374415 28.40907481 -41.04049234 20.71623792 -47.1875 11 C-48.58303107 7.14176703 -48.48106798 4.97295122 -47.25 1.0625 C-44.75 -1.1875 -44.75 -1.1875 -41.25 -2.9375 C-40.66734375 -3.2365625 -40.0846875 -3.535625 -39.484375 -3.84375 C-26.90854717 -9.19095238 -11.3644706 -6.77497286 0 0 Z M-32.25 8.0625 C-30.84844241 11.40022993 -29.2990314 13.07999057 -26.375 15.1875 C-25.69695313 15.68507812 -25.01890625 16.18265625 -24.3203125 16.6953125 C-20.70089325 19.08549502 -18.14023367 20.34257009 -13.75 20.3125 C-12.9971875 20.31765625 -12.244375 20.3228125 -11.46875 20.328125 C-9.0203279 20.03500404 -7.37695946 19.28066769 -5.25 18.0625 C-6.09065109 14.36363522 -6.87234251 12.41110692 -9.6875 9.8125 C-17.3372599 6.05472321 -24.20140738 5.32901571 -32.25 8.0625 Z M208 50.8125 C206.09227993 51.48676033 204.18431557 52.16032985 202.27612305 52.83325195 C197.37228112 54.5653334 192.47236683 56.30822471 187.57391357 58.05548096 C184.90155878 59.00845352 182.22852324 59.95948419 179.55517578 60.90966797 C170.14629508 64.2546063 160.74305345 67.61513094 151.34268188 70.98390198 C143.04427968 73.95775463 134.74470828 76.92832944 126.44288635 79.8926239 C120.62613142 81.96968489 114.81129324 84.0517993 109.00024414 86.14477539 C97.33463533 90.3380914 85.65426353 94.4580802 73.90386963 98.40678406 C68.86291154 100.10106386 63.83054183 101.82024041 58.79977036 103.54450321 C54.64524691 104.96573376 50.48122831 106.35261665 46.3072052 107.71543407 C44.34161902 108.36404375 42.38304159 109.03011161 40.42614746 109.70445251 C38.03619121 110.52798301 35.63641814 111.32376906 33.22619629 112.08595276 C27.45687888 114.05520995 27.45687888 114.05520995 23.246521 118.22944641 C22.17272764 120.8168836 21.43468731 123.34734169 20.75 126.0625 C20.17774833 127.80448397 19.5979121 129.54399359 19.01074219 131.28100586 C18.4351185 133.11176124 17.86397432 134.94392993 17.296875 136.77734375 C16.83924774 138.24368004 16.83924774 138.24368004 16.37237549 139.73963928 C15.73518651 141.78519675 15.10001499 143.83138367 14.46679688 145.87817383 C13.49450005 149.01775957 12.51327281 152.15446021 11.53125 155.29101562 C10.91092437 157.2862924 10.29111399 159.28172946 9.671875 161.27734375 C9.37819031 162.21480942 9.08450562 163.15227509 8.78192139 164.1181488 C8.51454163 164.98657913 8.24716187 165.85500946 7.97167969 166.74975586 C7.73503601 167.51235214 7.49839233 168.27494843 7.25457764 169.06065369 C6.62779417 171.20325943 6.62779417 171.20325943 6.75 174.0625 C10.15312738 173.00374926 12.76353231 172.05347846 15.75 170.0625 C18.77329256 169.8014212 21.70876242 169.97434819 24.75 170.0625 C24.75 173.0325 24.75 176.0025 24.75 179.0625 C24.21334717 179.36841064 23.67669434 179.67432129 23.1237793 179.98950195 C22.36492432 180.42222412 21.60606934 180.85494629 20.82421875 181.30078125 C19.9736792 181.78571045 19.12313965 182.27063965 18.24682617 182.77026367 C16.35634125 183.85014178 14.46720278 184.9323801 12.5793457 186.0168457 C7.87670784 188.71714098 3.1659372 191.39356904 -1.59375 193.9921875 C-2.43123779 194.45713623 -3.26872559 194.92208496 -4.1315918 195.40112305 C-5.69840932 196.27052817 -7.27238801 197.1272107 -8.85473633 197.96801758 C-18.73346554 203.50647577 -24.11277042 211.56677783 -28.1953125 221.9140625 C-28.61368378 222.93116302 -29.03205505 223.94826355 -29.46310425 224.9961853 C-30.78440169 228.21987451 -32.08000816 231.4531671 -33.375 234.6875 C-34.24962533 236.83271564 -35.12591524 238.97725341 -36.00390625 241.12109375 C-38.44325178 247.09202394 -40.85190054 253.07490401 -43.25 259.0625 C-43.58398804 259.89503296 -43.91797607 260.72756592 -44.26208496 261.58532715 C-45.92972976 265.74242067 -47.59118236 269.90185903 -49.25 274.0625 C-39.35 274.0625 -29.45 274.0625 -19.25 274.0625 C-21.24343767 270.05084738 -21.24343767 270.05084738 -24.25 267.0625 C-24.91 267.0625 -25.57 267.0625 -26.25 267.0625 C-27.0817965 260.40812798 -27.0817965 260.40812798 -24.97265625 256.99609375 C-22.66134 254.3179019 -20.24090755 251.90409853 -17.54223633 249.61206055 C-13.6920575 246.33828164 -10.16003002 242.95998846 -6.76171875 239.21484375 C-5.57545898 237.93577148 -5.57545898 237.93577148 -4.36523438 236.63085938 C-2.76439143 234.89607623 -1.18796943 233.13839009 0.36132812 231.35742188 C7.53533217 223.76986435 14.83195989 221.47451289 24.62747192 218.89413452 C28.17820253 217.94845523 31.71139093 216.9458544 35.24389648 215.93481445 C43.02280788 213.71416033 50.81304498 211.53539999 58.60601807 209.36468506 C64.45846866 207.73430056 70.30993153 206.1004009 76.160429 204.46302223 C78.19076753 203.89563027 80.22182023 203.33085119 82.25294495 202.76628113 C83.47279587 202.42534927 84.69264679 202.08441742 85.94946289 201.7331543 C87.56226891 201.28397896 87.56226891 201.28397896 89.20765686 200.82572937 C91.71124055 200.1531939 91.71124055 200.1531939 93.75 199.0625 C94.68634382 197.37552317 94.68634382 197.37552317 95.50585938 195.29296875 C96.00647888 194.09667847 96.00647888 194.09667847 96.51721191 192.8762207 C96.87246948 192.00956787 97.22772705 191.14291504 97.59375 190.25 C97.96350952 189.36594482 98.33326904 188.48188965 98.7142334 187.57104492 C99.89920229 184.73747259 101.07558793 181.9004627 102.25 179.0625 C103.79453688 175.33013198 105.3476254 171.60150348 106.90625 167.875 C107.43913635 166.57502075 107.43913635 166.57502075 107.98278809 165.2487793 C108.31653442 164.45125244 108.65028076 163.65372559 108.99414062 162.83203125 C109.28567017 162.12667236 109.57719971 161.42131348 109.87756348 160.69458008 C110.75 159.0625 110.75 159.0625 112.75 158.0625 C115.75 157.875 115.75 157.875 118.75 158.0625 C120.75 160.0625 120.75 160.0625 121.05273438 163.23901367 C120.72625405 167.36240747 119.61972305 170.5396226 117.90625 174.23828125 C117.47342712 175.2151313 117.47342712 175.2151313 117.03186035 176.2117157 C116.11662348 178.27178744 115.18423866 180.32348521 114.25 182.375 C113.31907137 184.44567939 112.39181876 186.51791956 111.46813965 188.59184265 C110.6334395 190.46186289 109.78864651 192.32736834 108.94335938 194.19262695 C107.62201615 196.85226795 107.62201615 196.85226795 107.75 199.0625 C111.39564198 199.54312972 115.04154738 200.02173288 118.6875 200.5 C120.21987305 200.70206055 120.21987305 200.70206055 121.78320312 200.90820312 C130.83307635 202.09364978 139.61440248 203.20750948 148.75 203.0625 C148.6778125 202.24910156 148.605625 201.43570313 148.53125 200.59765625 C147.75897453 191.06219939 147.64582954 181.62303368 147.75 172.0625 C151.05 172.0625 154.35 172.0625 157.75 172.0625 C158.8700792 180.36168617 159.85704644 188.64871771 160.49609375 197 C160.55391022 197.74411133 160.61172668 198.48822266 160.67129517 199.25488281 C160.90561789 202.29751112 161.13638784 205.34024642 161.35180664 208.38427734 C162.2846842 221.41158955 164.19181659 229.78952886 172.625 240.125 C173.85282045 241.65654445 175.0794027 243.18908245 176.3046875 244.72265625 C176.88968018 245.45395752 177.47467285 246.18525879 178.07739258 246.9387207 C185.8663082 256.82863122 185.8663082 256.82863122 185.75 262.0625 C183.72091795 264.82205159 181.51325505 266.21401677 178.625 268.0625 C175.39917431 269.9660645 175.39917431 269.9660645 173.75 274.0625 C184.97 274.0625 196.19 274.0625 207.75 274.0625 C206.34077706 270.53944265 204.93278947 267.36420782 203.17578125 264.03515625 C202.67578613 263.08439209 202.17579102 262.13362793 201.66064453 261.15405273 C201.13325684 260.15446533 200.60586914 259.15487793 200.0625 258.125 C198.98279439 256.05483274 197.90336659 253.98452057 196.82421875 251.9140625 C195.02543086 248.47352814 193.20429283 245.04948532 191.33203125 241.6484375 C190.6796594 240.43230674 190.027313 239.21616233 189.375 238 C188.81039062 236.97777344 188.24578125 235.95554687 187.6640625 234.90234375 C186.4398561 231.09893327 187.0137017 229.63936516 188.75 226.0625 C190.38805625 223.53685776 192.20356938 221.17865439 194.0625 218.8125 C195.1474361 217.40097006 196.23070718 215.98815913 197.3125 214.57421875 C197.87582031 213.83993652 198.43914062 213.1056543 199.01953125 212.34912109 C201.93830303 208.49229032 204.74488761 204.55596091 207.5625 200.625 C208.65449991 199.11816481 209.74693137 197.61164225 210.83984375 196.10546875 C212.55826337 193.73309346 214.23329544 191.35041516 215.87890625 188.92578125 C219.88370654 183.21871685 219.88370654 183.21871685 224.5625 182.375 C227.75 183.0625 227.75 183.0625 229.75 185.0625 C230.37506495 188.996395 229.83048308 191.33589676 227.66796875 194.5703125 C226.7721473 195.78672984 225.86149675 196.99234426 224.9375 198.1875 C224.48568359 198.79464844 224.03386719 199.40179688 223.56835938 200.02734375 C221.72156333 202.50232006 219.84237312 204.94579735 217.92578125 207.3671875 C216.56003368 208.99254829 216.56003368 208.99254829 216.75 211.0625 C223.97118091 210.78789171 229.24064246 207.32242745 235.375 203.75 C236.48166016 203.11771484 237.58832031 202.48542969 238.72851562 201.83398438 C242.07473924 199.91993679 245.41260312 197.99188521 248.75 196.0625 C251.41116938 194.53780431 254.07454728 193.01703541 256.73828125 191.49682617 C258.41107777 190.5415696 260.08295619 189.58470347 261.75390625 188.6262207 C270.02130448 183.88718472 278.33990296 179.24042049 286.66601562 174.60546875 C287.67599609 174.04214844 288.68597656 173.47882813 289.7265625 172.8984375 C290.62455566 172.39876465 291.52254883 171.8990918 292.44775391 171.38427734 C294.256468 170.34584913 296.01466544 169.21938971 297.75 168.0625 C300.625 167.4375 300.625 167.4375 303.75 168.0625 C309.68463861 176.06542773 313.2001098 185.71474694 317.16333008 194.79931641 C324.89605597 212.75964981 324.89605597 212.75964981 340.26171875 224.09765625 C342.41222124 224.82349304 344.55590224 225.48350198 346.75 226.0625 C348.14785636 222.75787677 349.18381417 219.58190296 349.93920898 216.07617188 C350.25480019 214.62942078 350.25480019 214.62942078 350.57676697 213.15344238 C350.90808372 211.60795715 350.90808372 211.60795715 351.24609375 210.03125 C351.72694825 207.83718142 352.20807641 205.64317281 352.68945312 203.44921875 C353.44115977 200.00026964 354.19003074 196.55075941 354.93383789 193.10009766 C355.65500926 189.76286585 356.38732022 186.4282301 357.12109375 183.09375 C357.44937416 181.54826477 357.44937416 181.54826477 357.7842865 179.97155762 C360.05531879 169.71423937 360.05531879 169.71423937 362.75 167.0625 C366.40407891 165.61725969 370.14870629 164.79033647 373.98046875 163.94921875 C375.08602615 163.68994095 376.19158356 163.43066315 377.3306427 163.16352844 C380.86215576 162.33991979 384.39938203 161.54470244 387.9375 160.75 C390.33311227 160.19651924 392.72830122 159.6412028 395.12304688 159.08398438 C400.99395238 157.72215219 406.86979644 156.38357143 412.75 155.0625 C408.23855201 150.55105201 398.49416808 150.55420688 392.3125 149.625 C391.42373169 149.49133026 390.53496338 149.35766052 389.6192627 149.21994019 C379.69271632 147.83011102 371.20576316 146.64204875 362.36303711 152.26733398 C359.46598422 154.54480846 356.74131559 156.87625046 354.21582031 159.56274414 C352.75 161.0625 352.75 161.0625 349.75 163.0625 C343.18396226 162.49646226 343.18396226 162.49646226 341.75 161.0625 C341.125 157.9375 341.125 157.9375 341.75 154.0625 C344.42775861 151.26005639 347.53412593 149.20471991 350.75 147.0625 C352.1066578 146.08678778 353.46115068 145.10805124 354.8125 144.125 C356.2665625 143.1040625 356.2665625 143.1040625 357.75 142.0625 C356.46076019 139.27426763 355.06380469 137.07253398 353.02734375 134.77734375 C352.49359131 134.17011475 351.95983887 133.56288574 351.40991211 132.93725586 C350.84151611 132.29796143 350.27312012 131.65866699 349.6875 131 C348.49880878 129.64687887 347.31131318 128.2927065 346.125 126.9375 C345.54492188 126.27492188 344.96484375 125.61234375 344.3671875 124.9296875 C342.25686101 122.49312696 340.21557686 120.00527142 338.1875 117.5 C334.31841613 112.72553636 330.34165256 108.05431926 326.33398438 103.39648438 C321.56293833 97.85142833 316.83651595 92.26966321 312.11767578 86.68017578 C310.72540583 85.03341021 309.32994527 83.38939933 307.93359375 81.74609375 C307.2365332 80.92492065 307.2365332 80.92492065 306.52539062 80.0871582 C305.59632354 78.99271847 304.66664181 77.89880019 303.73632812 76.80541992 C300.81577137 73.36102225 297.99260783 69.85216155 295.1875 66.3125 C284.57691355 53.44155975 270.89007142 43.91184338 254.05859375 41.54296875 C252.78113281 41.44628906 251.50367188 41.34960938 250.1875 41.25 C248.92808594 41.14042969 247.66867187 41.03085938 246.37109375 40.91796875 C233.18720156 40.82539782 220.22186298 46.44757826 208 50.8125 Z M369.75 184.0625 C369.09 187.0325 368.43 190.0025 367.75 193.0625 C373.50394859 192.42897785 379.05359582 191.44629052 384.6875 190.125 C385.45384766 189.95548828 386.22019531 189.78597656 387.00976562 189.61132812 C388.93992556 189.16169831 390.84802444 188.61943207 392.75 188.0625 C393.08 187.4025 393.41 186.7425 393.75 186.0625 C391.06306278 185.72398822 388.37559711 185.391564 385.6875 185.0625 C384.93533203 184.96710938 384.18316406 184.87171875 383.40820312 184.7734375 C378.81578683 184.21678098 374.3757865 183.96420972 369.75 184.0625 Z M266.53515625 199.9140625 C264.91577148 200.82091797 264.91577148 200.82091797 263.26367188 201.74609375 C262.12478516 202.38675781 260.98589844 203.02742187 259.8125 203.6875 C258.70841797 204.30496094 257.60433594 204.92242187 256.46679688 205.55859375 C253.22033764 207.38029267 249.98369591 209.21825538 246.75 211.0625 C245.75597168 211.62163086 244.76194336 212.18076172 243.73779297 212.75683594 C242.83303223 213.27793945 241.92827148 213.79904297 240.99609375 214.3359375 C240.19743896 214.79145996 239.39878418 215.24698242 238.57592773 215.71630859 C236.44534608 217.01657281 236.44534608 217.01657281 235.75 220.0625 C237.4183247 229.39899602 242.44477923 234.5570582 249.75 240.0625 C250.83498779 240.88186035 250.83498779 240.88186035 251.94189453 241.71777344 C255.99098143 244.75684861 260.06487736 247.7593523 264.1640625 250.73046875 C264.92589844 251.28661865 265.68773437 251.84276855 266.47265625 252.41577148 C268.00001588 253.52019265 269.53939101 254.60817148 271.08984375 255.67993164 C271.81558594 256.19289795 272.54132813 256.70586426 273.2890625 257.234375 C273.9382666 257.68264648 274.5874707 258.13091797 275.25634766 258.59277344 C277.10782364 260.41459191 277.31173766 261.56929151 277.5 264.125 C277.11052256 268.03475427 275.48338278 270.24369901 272.75 273.0625 C272.75 273.3925 272.75 273.7225 272.75 274.0625 C283.31 274.0625 293.87 274.0625 304.75 274.0625 C301.65073484 268.55862926 301.65073484 268.55862926 298.2265625 263.36328125 C297.76934814 262.72076416 297.31213379 262.07824707 296.84106445 261.41625977 C296.11536255 260.40583618 296.11536255 260.40583618 295.375 259.375 C294.31860698 257.89091209 293.26263643 256.40652339 292.20703125 254.921875 C291.65096191 254.14134766 291.09489258 253.36082031 290.52197266 252.55664062 C287.35033483 248.09240088 284.20590002 243.60914643 281.0625 239.125 C280.45035645 238.25464111 279.83821289 237.38428223 279.20751953 236.48754883 C278.6401709 235.67825928 278.07282227 234.86896973 277.48828125 234.03515625 C276.98337158 233.31593994 276.47846191 232.59672363 275.95825195 231.85571289 C273.49203655 228.19550838 273.55913995 225.49798983 273.43359375 221.0859375 C273.41281265 220.40069 273.39203156 219.7154425 273.37062073 219.00942993 C273.30519815 216.81888931 273.24627446 214.62822811 273.1875 212.4375 C273.14430782 210.9531125 273.1006933 209.46873722 273.05664062 207.984375 C272.94952447 204.34387916 272.84823638 200.70324749 272.75 197.0625 C270.60820793 197.0625 268.32074749 198.9134257 266.53515625 199.9140625 Z M93.3269043 212.1640625 C92.48641037 212.40431152 91.64591644 212.64456055 90.779953 212.89208984 C89.8870607 213.1545752 88.9941684 213.41706055 88.07421875 213.6875 C87.1490596 213.95385254 86.22390045 214.22020508 85.27070618 214.49462891 C82.32447073 215.34438874 79.38099737 216.20330919 76.4375 217.0625 C74.43702434 217.64123157 72.43637512 218.21936358 70.43554688 218.796875 C65.53832561 220.21180798 60.64356075 221.63496097 55.75 223.0625 C56.98704637 226.70333493 58.08138179 228.74867178 61.171875 231.04296875 C61.86063721 231.56213867 62.54939941 232.08130859 63.2590332 232.61621094 C63.99855225 233.15536133 64.73807129 233.69451172 65.5 234.25 C66.64311646 235.10319824 66.64311646 235.10319824 67.80932617 235.97363281 C73.62663313 240.29675808 79.51978204 244.51500856 85.4375 248.69921875 C99.02828746 258.34078746 99.02828746 258.34078746 101.75 261.0625 C102.19479817 264.97672392 102.10509944 266.57423827 99.75 269.8125 C99.09 270.555 98.43 271.2975 97.75 272.0625 C97.75 272.7225 97.75 273.3825 97.75 274.0625 C106.99 274.0625 116.23 274.0625 125.75 274.0625 C121.92251407 267.04544246 118.07276871 260.13815973 113.9375 253.3125 C113.42413086 252.4563208 112.91076172 251.6001416 112.38183594 250.71801758 C109.95586046 246.6773604 107.50642678 242.65765133 104.97265625 238.68359375 C104.55282471 238.01489258 104.13299316 237.34619141 103.70043945 236.65722656 C102.92687506 235.42820785 102.14108759 234.20675671 101.34057617 232.99511719 C98.7679671 228.87653556 98.1960863 225.87047088 98.75 221.0625 C99.84375 218.41015625 99.84375 218.41015625 101.25 216.125 C101.7140625 215.35285156 102.178125 214.58070313 102.65625 213.78515625 C103.0171875 213.21667969 103.378125 212.64820313 103.75 212.0625 C102.7154555 210.80616154 102.7154555 210.80616154 100.46394348 210.93115234 C97.88236926 211.05609368 95.80024456 211.4467191 93.3269043 212.1640625 Z " transform="translate(71.25,118.9375)"/>
</svg>
